# xmcd CD database file
# Copyright (C) 1995-1998 Ti Kan
#
# Track frame offsets:
#	150
#	19890
#	36507
#	56395
#	73467
#	85857
#	104445
#	120722
#	146490
#	158820
#	172615
#
# Disc length: 2567 seconds
#
# Revision: 1
# Processed by: cddbd v1.4PL0 Copyright (c) Steve Scherf et al.
# Submitted via: CDex 1.30Release
#
DISCID=930a050b
DTITLE=Joanne Mackell - Local Gig in Paradise
DYEAR=1997
DGENRE=Country
TTITLE0=Living in another town
TTITLE1=Flying down that road
TTITLE2=Local gig in Paradise
TTITLE3=Last night's waltz
TTITLE4=Boat on a river
TTITLE5=When a thing is done
TTITLE6=Otro Tequila
TTITLE7=Do it all day
TTITLE8=I love you heart and soul
TTITLE9=When i close my eyes
TTITLE10=These tender places
EXTD=YEAR: 1997 ID3G:   2
EXTT0=
EXTT1=
EXTT2=
EXTT3=
EXTT4=
EXTT5=
EXTT6=
EXTT7=
EXTT8=
EXTT9=
EXTT10=
PLAYORDER=
